<svg xmlns="http://www.w3.org/2000/svg" width="143" height="27" fill="none"><g fill="#111" clip-path="url(#a)"><path d="M1.79 24.44A10.15 10.15 0 0 1 0 18.19V8.92c-.15-2.24.44-4.48 1.68-6.36C2.9 1.11 4.8.44 7.6.44s4.58.67 5.7 1.9a8 8 0 0 1 1.67 5.47v2.23H9.5V7.47a5.49 5.49 0 0 0-.34-2.23 1.6 1.6 0 0 0-1.56-.9c-.78 0-1.34.23-1.57.79a7.2 7.2 0 0 0-.33 2.45v11.95c-.06.8.1 1.61.45 2.34.22.56.78.78 1.56.78s1.23-.22 1.45-.78c.26-.75.37-1.55.34-2.34v-2.68h5.47v2.23c.12 2-.48 3.98-1.67 5.58-1.12 1.34-3.02 2.01-5.7 2.01-2.68-.11-4.7-.78-5.81-2.23ZM21.57.78h6.36l4.7 25.44h-5.14l-.9-5.35h-3.68l-.9 5.35h-5.25L21.56.78Zm4.58 16.74L24.8 7.58l-1.35 9.94h2.69ZM36.54 5.02h-3.8V.78h13.3V4.9h-3.8v21.31h-5.7V5.02ZM56.2.78h9.84v2.67h-6.37v8.38h5.14v2.56h-5.14v9.38h6.37v2.57h-9.95V.78h.11ZM68.94.78h2.46l7.26 16.85V.78h2.9v25.44h-2.23l-7.37-17.4v17.4h-3.02V.78ZM84.92.78h9.83v2.67h-6.37v8.38h5.14v2.56h-5.14v9.38h6.37v2.57h-9.83V.78ZM97.66.78h5.14a8.95 8.95 0 0 1 5.7 1.56c1.23 1 1.78 2.79 1.78 5.13 0 3.24-1 5.25-3.12 5.92l3.57 12.72h-3.46l-3.35-11.94h-2.8V26.1h-3.57V.78h.1Zm4.92 10.93c1.15.1 2.3-.22 3.23-.89.68-.56 1.01-1.67 1.01-3.35a7.2 7.2 0 0 0-.33-2.45 2.84 2.84 0 0 0-1.23-1.34 5.1 5.1 0 0 0-2.46-.45h-1.57v8.37h1.34v.11ZM114.75 24.33a11.28 11.28 0 0 1-1.56-6.48V9.37c-.03-1.62.16-3.23.56-4.8a5.67 5.67 0 0 1 2.12-2.9 7.3 7.3 0 0 1 4.14-1c2.34 0 4.02.55 5.02 1.78a8.54 8.54 0 0 1 1.57 5.58v.9h-3.35v-.79c0-.93-.07-1.87-.23-2.79-.1-.58-.41-1.1-.9-1.45a3.45 3.45 0 0 0-2.11-.56c-.8-.05-1.6.19-2.24.67a2.52 2.52 0 0 0-.9 1.79c-.14 1-.22 2-.22 3.01v9.49c-.08 1.44.15 2.9.67 4.24.45.9 1.35 1.23 2.69 1.23a2.7 2.7 0 0 0 2.68-1.34c.59-1.41.86-2.94.78-4.47v-1.78h-3.24V13.6h6.48v12.61h-2.23l-.34-2.9a4.55 4.55 0 0 1-4.58 3.24 5.6 5.6 0 0 1-4.8-2.23ZM133.86 17.3 128.4.88h3.35l3.9 12.27L139.45.9h3.36l-5.48 16.4v8.93h-3.35V17.3h-.1Z"/></g><defs><clipPath id="a"><path fill="#fff" d="M0 .44h142.8v26.12H0z"/></clipPath></defs></svg>